# xmcd CD database file
#
# Track frame offsets:
#	183
#	17565
#	38338
#	48808
#	79228
#	106275
#	124898
#	144955
#	165340
#
# Disc length: 2524 seconds
#
# Revision: 0
# Processed by: cddbd v1.5.1PL0 Copyright (c) Steve Scherf et al.
# Submitted via: CDex 1.51
#
DISCID=5f09da09
DTITLE=Kassap, Sylvain - Foehn
DYEAR=1987
DGENRE=Jazz
TTITLE0=Adelie (for lady D
TTITLE1=Zaitut
TTITLE2=Plancoet
TTITLE3=Llamarada
TTITLE4=Taragot
TTITLE5=Sadness, but...
TTITLE6=Le retour du touron
TTITLE7=Claxophones et sarinettes
TTITLE8=The last drop
EXTD=YEAR: 1987
EXTT0=
EXTT1=
EXTT2=
EXTT3=
EXTT4=
EXTT5=
EXTT6=
EXTT7=
EXTT8=
PLAYORDER=
